<svg xmlns="http://www.w3.org/2000/svg" viewBox="0 0 100 100" width="100" height="100" role="img" aria-label="VibeDeck">
<g><path d="M97.00,50.00 L91.00,51.60 L91.00,48.40 Z" fill="var(--fg,#2E231B)"></path><path d="M90.70,73.50 L84.71,71.89 L86.31,69.11 Z" fill="var(--fg,#2E231B)"></path><path d="M73.50,90.70 L69.11,86.31 L71.89,84.71 Z" fill="var(--fg,#2E231B)"></path><path d="M50.00,97.00 L48.40,91.00 L51.60,91.00 Z" fill="var(--fg,#2E231B)"></path><path d="M26.50,90.70 L28.11,84.71 L30.89,86.31 Z" fill="var(--fg,#2E231B)"></path><path d="M9.30,73.50 L13.69,69.11 L15.29,71.89 Z" fill="var(--fg,#2E231B)"></path><path d="M3.00,50.00 L9.00,48.40 L9.00,51.60 Z" fill="var(--fg,#2E231B)"></path><path d="M9.30,26.50 L15.29,28.11 L13.69,30.89 Z" fill="var(--fg,#2E231B)"></path><path d="M26.50,9.30 L30.89,13.69 L28.11,15.29 Z" fill="var(--fg,#2E231B)"></path><path d="M50.00,3.00 L51.60,9.00 L48.40,9.00 Z" fill="var(--fg,#2E231B)"></path><path d="M73.50,9.30 L71.89,15.29 L69.11,13.69 Z" fill="var(--fg,#2E231B)"></path><path d="M90.70,26.50 L86.31,30.89 L84.71,28.11 Z" fill="var(--fg,#2E231B)"></path>
<circle cx="50" cy="50" r="33" fill="none" stroke="var(--fg,#2E231B)" stroke-width="4.5"></circle>
<line x1="50" y1="9" x2="50" y2="30" stroke="var(--fg,#2E231B)" stroke-width="4.5"></line>
<line x1="50" y1="70" x2="50" y2="91" stroke="var(--fg,#2E231B)" stroke-width="4.5"></line>
<line x1="9" y1="50" x2="30" y2="50" stroke="var(--fg,#2E231B)" stroke-width="4.5"></line>
<line x1="70" y1="50" x2="91" y2="50" stroke="var(--fg,#2E231B)" stroke-width="4.5"></line>
<circle cx="50" cy="50" r="9.5" fill="var(--accent,#BA5522)"></circle>
</g></svg>